<svg width="87" height="159" viewBox="0 0 87 159" fill="none" xmlns="http://www.w3.org/2000/svg">
<g clip-path="url(#clip0_171_31450)">
<path d="M0.117706 91.3432L43.4981 22.5599C57.9949 45.5528 72.5032 68.5381 87 91.5309C72.488 114.01 57.9987 136.509 43.5019 159C28.9975 136.513 14.4741 114.037 0 91.5309L0.117706 91.3432Z" fill="#231F20"/>
<path fill-rule="evenodd" clip-rule="evenodd" d="M1.2793 91.5156L43.4978 24.5753L85.7163 91.5118L43.5016 156.996L1.2793 91.5156Z" fill="#FFCB05"/>
<path fill-rule="evenodd" clip-rule="evenodd" d="M43.4989 0L46.0618 8.00786L54.4 7.99253L47.6452 12.9237L50.2385 20.92L43.4989 15.9621L36.763 20.92L39.3564 12.9237L32.6016 7.99253L40.9397 8.00786L43.4989 0Z" fill="#FFCB05"/>
<path fill-rule="evenodd" clip-rule="evenodd" d="M43.499 0L46.0619 8.00786L54.4001 7.99253L47.6453 12.9237L50.2386 20.92L43.5028 15.9621L36.7669 20.92L39.3603 12.9237L32.6055 7.99253L40.9436 8.00786L43.499 0ZM44.9836 8.35652L43.499 3.7204L41.7638 9.14965L36.1101 9.13815L40.693 12.4831L38.935 17.9085L43.5028 14.5444L48.0705 17.9085L46.3125 12.4831L50.8955 9.13815L45.2418 9.14965L44.9874 8.35652H44.9836Z" fill="#231F20"/>
<path d="M37.3992 72.8907C39.5787 72.0056 36.9132 68.3273 35.2919 67.6645C34.5971 69.2661 35.1438 73.8141 37.3992 72.8907Z" fill="#231F20"/>
<path d="M31.5832 69.6224C31.1921 71.3236 32.5932 75.6838 34.617 74.3581C36.618 73.0631 33.288 69.9481 31.5832 69.6224Z" fill="#231F20"/>
<path d="M32.1703 76.316C33.8789 74.6646 30.0326 72.2623 28.286 72.2661C28.2366 74.0018 30.4313 78.021 32.1703 76.316Z" fill="#231F20"/>
<path d="M40.3957 72.0056C42.7081 71.5458 40.7982 67.4078 39.3288 66.4537C38.3454 67.8982 38.0112 72.4654 40.3957 72.0056Z" fill="#231F20"/>
<path d="M76.3101 80.2126C76.1468 82.3851 75.9228 84.5422 75.6152 86.6956L81.6904 88.5462L76.3139 80.2088L76.3101 80.2126Z" fill="#231F20"/>
<path d="M30.1471 78.7145C31.495 76.7566 27.2804 75.1397 25.5527 75.4807C25.8451 77.2011 28.746 80.7299 30.1471 78.7145Z" fill="#231F20"/>
<path d="M17.6213 81.7223L43.5015 41.5681L69.374 81.7261C71.1966 80.5077 72.9622 79.1935 74.6594 77.841L74.7429 77.7758L43.5015 29.3072L12.2676 77.772L12.3587 77.8448C14.056 79.1973 15.8177 80.5077 17.6289 81.7261L17.6213 81.7223Z" fill="#231F20"/>
<path d="M22.1621 83.1821C23.0544 84.6764 27.0716 86.8412 27.6108 84.4541C28.1385 82.1246 23.6315 82.2242 22.1621 83.1821Z" fill="#231F20"/>
<path d="M43.5017 66.0629C42.2639 67.2698 41.083 71.7029 43.4979 71.7029C45.8634 71.7029 44.7509 67.2698 43.5017 66.0629Z" fill="#231F20"/>
<path d="M28.6125 81.4579C29.5769 79.2778 25.1154 78.4961 23.4941 79.1781C24.1017 80.8142 27.6139 83.707 28.6125 81.4579Z" fill="#231F20"/>
<path d="M65.8157 102.324C65.6297 103.792 65.2044 104.911 64.6159 105.75C63.773 106.945 62.5579 107.589 61.2214 107.914L60.9708 107.968L61.0657 108.225C61.2897 108.803 61.472 109.363 61.6277 109.93C62.0491 111.593 62.0833 113.164 61.5062 114.509C60.9366 115.853 59.7672 116.961 57.8003 117.761C57.394 117.915 56.9308 118.064 56.4638 118.187C56.3309 117.489 56.1031 116.57 55.7044 115.597C55.2488 114.528 54.5539 113.401 53.5401 112.531C52.8073 111.903 51.7935 111.439 50.8291 111.187C49.7659 110.895 48.737 110.88 48.2434 111.167C47.6244 111.524 47.2637 112.531 47.2485 113.758C47.2258 114.846 47.5067 116.141 48.0915 117.283C48.8091 118.662 49.933 119.957 51.5087 120.861C52.7693 121.578 54.3223 122.037 56.1448 122.049C55.8297 123.601 55.4386 125.306 54.6754 126.651C53.8856 128.03 52.6706 129.053 50.7114 129.103C50.0051 129.133 49.2799 128.949 48.4902 128.624C47.6624 128.298 46.7625 127.808 45.7032 127.21L45.2817 126.957L45.369 127.448C45.874 130.241 45.9234 132.934 45.5703 135.402C45.2361 137.77 44.5375 139.931 43.5085 141.793C42.4795 139.934 41.7847 137.77 41.4506 135.402C41.0975 132.934 41.1392 130.241 41.6556 127.448L41.7353 126.953L41.3139 127.206C40.2507 127.804 39.3584 128.302 38.5269 128.62C37.7371 128.946 37.0081 129.133 36.2981 129.099C34.3388 129.045 33.1276 128.026 32.3264 126.647C31.5671 125.302 31.1798 123.601 30.8798 122.049C32.7023 122.034 34.2363 121.574 35.5045 120.857C37.0803 119.953 38.2004 118.662 38.9142 117.283C39.5217 116.141 39.7761 114.846 39.7571 113.758C39.7457 112.528 39.3888 111.524 38.7623 111.167C38.2763 110.872 37.2625 110.895 36.1804 111.183C35.2235 111.436 34.2022 111.895 33.4655 112.528C32.448 113.397 31.7721 114.524 31.3051 115.593C30.895 116.566 30.6824 117.486 30.5457 118.183C30.0748 118.064 29.6344 117.911 29.2243 117.758C27.2499 116.976 26.0728 115.853 25.4957 114.509C24.9224 113.16 24.9603 111.597 25.378 109.926C25.5337 109.359 25.7159 108.8 25.9361 108.221L26.0349 107.964L25.7843 107.914C24.4553 107.589 23.2555 106.945 22.3974 105.75C21.805 104.907 21.376 103.796 21.1899 102.328C14.9363 100.002 9.15733 96.4813 4.30859 91.4658L43.5123 152.268L82.7085 91.4658C77.8597 96.4774 72.0807 100.002 65.8233 102.328L65.8157 102.324Z" fill="#231F20"/>
<path d="M43.5013 104.964C57.7703 104.93 72.3962 101.045 82.6101 89.9754L74.4086 87.4734C74.8794 84.4388 75.1452 81.5614 75.3313 78.6992C62.4064 88.9868 53.9505 90.3662 43.5013 90.416C33.0558 90.3662 24.5962 88.9868 11.6789 78.7031C11.8687 81.5652 12.1193 84.4388 12.5939 87.4734L4.38867 89.9792C14.6063 101.052 29.2171 104.934 43.5051 104.968L43.5013 104.964ZM70.118 86.6343L71.2154 88.6267L71.0255 88.7301C70.6534 88.3393 70.3497 88.0864 70.0991 87.9638C69.8447 87.8259 69.5561 87.7799 69.2523 87.7952C69.0815 87.8106 68.8271 87.914 68.4929 88.1017L67.9348 88.4083L71.0521 94.0789C71.2533 94.4544 71.4128 94.6766 71.5077 94.7418C71.5913 94.8146 71.728 94.849 71.8798 94.8605C72.0507 94.8605 72.2367 94.7954 72.438 94.6958L72.6734 94.554L72.7949 94.7418L68.9562 96.8912L68.8536 96.6843L69.0891 96.5502C69.3055 96.4315 69.465 96.2935 69.5447 96.1594C69.6092 96.056 69.632 95.9219 69.613 95.7686C69.613 95.6613 69.5105 95.4238 69.3055 95.0521L66.1882 89.3815L65.6452 89.6842C65.1554 89.96 64.8478 90.2665 64.7491 90.5884C64.5972 91.0673 64.6352 91.5923 64.8516 92.19L64.6466 92.2896L63.5531 90.2972L70.1029 86.6343H70.118ZM57.5577 100.244C57.6943 100.002 57.8083 99.5311 57.9146 98.83L59.0764 91.5731L59.1904 91.5539L63.8682 97.4162C64.3049 97.9756 64.6466 98.3166 64.863 98.4162C65.0301 98.5158 65.2541 98.5388 65.4857 98.489L65.5541 98.7074L61.6584 99.7649L61.59 99.5426L61.7571 99.5082C62.0571 99.4239 62.2773 99.3051 62.3836 99.1825C62.4482 99.0982 62.4709 98.9947 62.433 98.876C62.4178 98.807 62.3798 98.738 62.3494 98.6537C62.3305 98.6231 62.2279 98.5043 62.0419 98.2629L61.3546 97.3587L58.4993 98.125L58.3664 99.0139C58.3322 99.3204 58.3322 99.5388 58.3854 99.7112C58.4348 99.9488 58.5677 100.083 58.7879 100.152C58.9094 100.183 59.1942 100.152 59.6194 100.083L59.6726 100.286L57.0033 101.018L56.935 100.796C57.2235 100.677 57.4286 100.493 57.5615 100.236L57.5577 100.244ZM50.7003 93.462C51.885 93.3471 52.7583 93.4965 53.3202 93.8758C53.8708 94.2666 54.1784 94.7801 54.2429 95.4238C54.2771 95.9717 54.1594 96.4468 53.8556 96.8567C53.5557 97.2782 53.1152 97.5886 52.5419 97.7763C52.1508 97.9142 51.4977 98.0139 50.5485 98.102L50.7535 100.435C50.7877 100.88 50.8408 101.167 50.9054 101.29C50.9737 101.389 51.0762 101.478 51.2243 101.543C51.38 101.592 51.6268 101.612 52.0065 101.573L52.0179 101.799L47.8032 102.171L47.7881 101.953C48.1753 101.918 48.4259 101.849 48.5626 101.765C48.6803 101.681 48.7791 101.577 48.8132 101.458C48.8664 101.336 48.8664 101.048 48.836 100.604L48.3576 95.1594C48.3234 94.6996 48.2551 94.4237 48.2095 94.305C48.1374 94.1862 48.0349 94.1019 47.8868 94.0521C47.7387 94.0023 47.4843 93.9831 47.0932 94.0176L47.0742 93.7762L50.7041 93.4697L50.7003 93.462ZM39.036 91.4543C39.3132 91.4735 39.5448 91.6612 39.5448 92.0176C39.5258 92.2245 39.4765 92.4467 39.579 92.6153C39.6815 92.7992 39.9625 92.8681 40.2852 92.8873C40.627 92.9218 40.8586 92.9371 40.9991 92.7302C41.113 92.5616 41.0674 92.3049 41.1661 92.0827C41.2345 91.8949 41.4243 91.7264 41.7281 91.7608C42.0774 91.7762 42.347 91.9984 42.2824 92.5118C42.1799 93.2245 41.6559 93.3433 40.3042 93.3126C39.055 93.259 38.4133 93.0061 38.3754 92.2743C38.345 91.711 38.6791 91.439 39.0322 91.4543H39.036ZM35.3264 101.723L35.596 101.742C35.8352 101.742 36.0364 101.707 36.1921 101.623C36.2946 101.573 36.3744 101.474 36.4465 101.336C36.4959 101.236 36.53 100.976 36.549 100.554L36.7313 95.0176C36.7541 94.5923 36.7313 94.3203 36.6971 94.2207C36.6439 94.0981 36.5604 93.9984 36.4313 93.9142C36.2946 93.826 36.1048 93.7954 35.8694 93.7762H35.5998V93.5387L39.9701 93.6881L39.9587 93.9295L39.6891 93.9103C39.4499 93.9103 39.2487 93.9448 39.1006 94.0138C38.9791 94.0827 38.8955 94.1709 38.8272 94.3203C38.7778 94.4046 38.7589 94.6766 38.7475 95.0866L38.5918 99.6538L41.6825 95.1709C41.6939 94.7456 41.6787 94.4927 41.6446 94.3893C41.6066 94.2705 41.5079 94.1824 41.3712 94.0981C41.2421 94.0099 41.0598 93.964 40.8168 93.9486H40.5472L40.5662 93.7073L44.9024 93.8605L44.8834 94.0942L44.6176 94.0789C44.3784 94.0789 44.1733 94.1096 44.0215 94.1938C43.9189 94.2475 43.8392 94.3471 43.7709 94.485C43.7177 94.5885 43.6835 94.8414 43.6683 95.2667L43.4823 100.803C43.4595 101.232 43.4823 101.504 43.5165 101.608C43.5696 101.723 43.6532 101.811 43.7898 101.895C43.9227 101.979 44.1088 102.033 44.3442 102.048H44.6138V102.286L40.2587 102.133L40.2738 101.895L40.5396 101.914C40.7788 101.914 40.9839 101.88 41.1282 101.796C41.2345 101.746 41.318 101.642 41.3864 101.504C41.4319 101.42 41.4699 101.148 41.4851 100.719L41.637 96.1211L38.55 100.585L38.5348 100.615C38.5348 101.06 38.5348 101.332 38.5842 101.432C38.6336 101.535 38.7209 101.635 38.8538 101.719C38.9867 101.807 39.1765 101.861 39.4119 101.861L39.6815 101.876L39.6625 102.098L35.3112 101.945L35.3226 101.719L35.3264 101.723ZM25.5036 97.9602L30.0068 92.19L30.1283 92.2053L31.3889 99.6308C31.5066 100.324 31.6281 100.788 31.78 101.01C31.8825 101.16 32.0458 101.282 32.3078 101.366L32.2357 101.589L28.3172 100.6L28.3665 100.378L28.5374 100.412C28.8602 100.497 29.0766 100.512 29.2285 100.447C29.3272 100.412 29.3993 100.324 29.4297 100.205C29.4487 100.14 29.4677 100.052 29.4487 99.9718C29.4487 99.9373 29.4335 99.7687 29.3841 99.4775L29.2095 98.351L26.3428 97.6384L25.8074 98.3357C25.6327 98.5771 25.515 98.7763 25.4846 98.9641C25.4163 99.1863 25.4695 99.3741 25.6327 99.5311C25.7163 99.6308 25.9745 99.7342 26.3921 99.8836L26.3276 100.106L23.6469 99.4239L23.6963 99.2016C24.0038 99.2208 24.2734 99.1672 24.5088 99.0139C24.7404 98.8606 25.0822 98.5043 25.5036 97.9564V97.9602ZM12.7078 93.8567L12.9622 93.9755C13.1673 94.0942 13.3685 94.1479 13.5356 94.1287C13.6495 94.1287 13.771 94.0789 13.8849 93.9755C13.976 93.9065 14.1051 93.6881 14.2912 93.3279L16.7934 88.3891C16.9756 88.0136 17.0781 87.7607 17.0933 87.642C17.0933 87.5232 17.0592 87.4006 16.9756 87.2665C16.8921 87.1285 16.7364 87.0098 16.539 86.9063L16.2808 86.7722L16.3871 86.5653L20.1005 88.4734L19.9828 88.6765C19.7474 88.5424 19.5234 88.4887 19.3601 88.4887C19.2424 88.4887 19.1209 88.5424 18.9994 88.642C18.9197 88.711 18.764 88.9332 18.5817 89.3048L17.3971 91.6382L21.2966 90.803C21.8358 90.7033 22.1547 90.5463 22.2572 90.3623C22.3218 90.2091 22.2876 90.075 22.1889 89.9026C22.1205 89.8183 21.9345 89.6995 21.6117 89.5117L21.7105 89.3087L24.6189 90.8068L24.5126 91.0099C24.2468 90.8911 24.0266 90.8413 23.8368 90.8413C23.6545 90.8413 23.1799 90.9102 22.4205 91.0788L19.3677 91.7264L20.317 96.3433C20.4271 96.9181 20.5562 97.351 20.7043 97.6537L21.4409 98.2438L20.4613 100.455L19.9828 100.255C20.2676 99.3664 20.0246 98.4851 19.5614 97.7342L17.9515 96.8108L17.3401 96.4966L17.4427 96.2935C17.6933 96.3931 17.8641 96.4276 17.9666 96.4123C18.0654 96.3931 18.1337 96.3433 18.1831 96.2744C18.2514 96.1249 18.2324 95.7303 18.1147 95.1326L17.511 92.1018L17.1047 92.2053L16.0757 94.2322C15.8745 94.623 15.7872 94.8797 15.772 95.0023C15.772 95.1172 15.8251 95.2399 15.9087 95.374C15.9922 95.5119 16.1745 95.646 16.4516 95.7801L16.3491 95.987L12.5977 94.0636L12.7002 93.8605L12.7078 93.8567Z" fill="#231F20"/>
<path d="M64.8326 83.1782C63.3822 82.2433 58.841 82.0709 59.3802 84.4541C59.9231 86.7875 63.9403 84.6917 64.8326 83.1782Z" fill="#231F20"/>
<path d="M47.6615 66.4537C46.23 67.4231 44.2176 71.5266 46.6059 72.0056C48.9335 72.4462 48.6791 67.8982 47.6615 66.4537Z" fill="#231F20"/>
<path d="M10.6948 80.1935L5.31445 88.5538L11.382 86.6994C11.0783 84.5346 10.8618 82.3736 10.6948 80.1935Z" fill="#231F20"/>
<path d="M59.0986 94.5042L58.5898 97.6384L61.0313 96.9755L59.0986 94.5042Z" fill="#231F20"/>
<path d="M50.8068 97.6039C51.3118 97.5541 51.6839 97.3816 51.9194 97.0598C52.1738 96.7379 52.2573 96.2628 52.2117 95.6268C52.1586 95.0023 51.9877 94.554 51.6839 94.3011C51.3992 94.0291 50.9777 93.9256 50.4385 93.9793L50.2031 93.9946L50.5031 97.623C50.6436 97.623 50.7423 97.6039 50.8068 97.6039Z" fill="#231F20"/>
<path d="M28.6083 94.7456L26.6719 97.2514L29.1133 97.8606L28.6083 94.7456Z" fill="#231F20"/>
<path d="M54.8229 76.316C56.5315 77.9865 58.7755 74.0171 58.7034 72.2623C56.9871 72.2623 53.0687 74.6148 54.8229 76.316Z" fill="#231F20"/>
<path d="M49.6061 72.8907C51.8008 73.7911 52.4083 69.2622 51.6982 67.6606C50.0921 68.3235 47.3431 71.9673 49.6061 72.8907Z" fill="#231F20"/>
<path d="M52.3751 74.3581C54.3495 75.6532 55.8189 71.3427 55.4126 69.6224C53.7268 69.9634 50.3323 73.0094 52.3751 74.3581Z" fill="#231F20"/>
<path d="M61.4409 75.4807C59.736 75.155 55.4644 76.7068 56.8503 78.7145C58.2172 80.6724 61.1675 77.2164 61.4409 75.4807Z" fill="#231F20"/>
<path d="M63.4997 79.159C61.8974 78.5268 57.4056 79.2279 58.3814 81.4579C59.3496 83.638 62.9112 80.8295 63.4997 79.159Z" fill="#231F20"/>
<path d="M57.7888 87.435C57.7888 87.2856 57.7888 87.3776 57.7812 87.2281C57.5458 79.6609 51.2276 73.5765 43.497 73.5765C35.7664 73.5765 29.3647 79.7452 29.209 87.3852C29.209 87.481 29.209 87.481 29.209 87.573L30.3785 87.9063C30.3785 87.8488 30.3481 87.5538 30.3481 87.4963C30.386 84.6687 31.3505 82.0594 32.9528 79.9444L33.5147 81.2433C33.1351 82.0096 32.4516 83.7376 32.2693 86.5002L30.9632 88.0443C32.1668 88.3508 33.7008 88.642 35.4512 88.868C34.8095 88.2205 34.1337 87.4542 33.4122 86.5155C33.5945 83.8794 34.2666 82.2893 34.5703 81.6954C35.9714 81.4004 37.4446 81.2778 38.8723 81.2203C39.2558 82.0479 39.8291 83.0556 40.6606 84.1706L40.4708 84.7223L40.1405 85.6917L39.1798 88.5538L37.5357 89.0941C39.4836 89.2627 41.515 89.3278 43.5274 89.2627C45.6309 89.1937 47.4876 89.1362 49.1962 89.029L48.771 88.7263L47.6699 85.2243L47.3016 84.0442C48.023 83.0556 48.5394 82.1629 48.9077 81.4004C50.267 81.4196 51.1175 81.7299 52.3895 82.5882C52.7768 83.3507 53.3805 84.8373 53.6577 87.1209L53.4071 87.5538H53.4033C53.1603 87.9446 52.9021 88.324 52.6097 88.6879C53.7868 88.5155 54.9069 88.2856 55.989 87.9638C55.5828 87.5691 55.1727 87.1783 54.7664 86.7875C54.4171 84.1514 53.6729 82.5154 53.2476 81.7682L53.483 79.9521V79.9904L53.5704 79.3506C55.4423 81.5345 56.5927 84.3354 56.6611 87.3967C56.6611 87.4925 56.6421 87.6803 56.6421 87.776L57.804 87.4427L57.7888 87.435ZM46.2308 76.6838C44.1121 76.3275 42.5933 76.4501 41.7542 76.5957C40.8809 76.1283 39.9886 75.6455 39.4494 75.3581C40.7252 74.952 42.0883 74.7259 43.5008 74.7259C45.3347 74.7259 47.0813 75.0976 48.6685 75.7681C47.8559 76.0746 47.0472 76.3773 46.2308 76.6838ZM41.4808 83.3622C40.6796 82.2663 40.1557 81.3008 39.8139 80.5307C39.9088 80.274 40.0152 80.0249 40.1291 79.7912C40.1746 79.7031 40.2164 79.6188 40.2658 79.5306C40.3075 79.4617 40.3455 79.3927 40.3911 79.3237C40.7556 78.7528 41.196 78.2433 41.6858 77.772C42.3009 77.6417 43.7666 77.4425 45.9612 77.7988C46.5725 78.3697 47.1345 79.0019 47.5635 79.7069C47.6015 79.7682 47.6319 79.8257 47.6623 79.8831C47.723 79.9904 47.7762 80.0939 47.8293 80.1935C47.8939 80.3238 47.9546 80.4579 48.0116 80.5958C47.6737 81.3544 47.1573 82.2932 46.3827 83.3507H41.4846L41.4808 83.3622Z" fill="#231F20"/>
</g>
<defs>
<clipPath id="clip0_171_31450">
<rect width="87" height="159" fill="white"/>
</clipPath>
</defs>
</svg>
