<svg width="24" height="24" viewBox="0 0 24 24" fill="none" xmlns="http://www.w3.org/2000/svg">
<path d="M6.76017 21.999H17.2402C20.0002 21.999 21.1002 20.309 21.2302 18.249L21.7502 9.98902C21.8902 7.82902 20.1702 5.99902 18.0002 5.99902C17.3902 5.99902 16.8302 5.64902 16.5502 5.10902L15.8302 3.65902C15.3702 2.74902 14.1702 1.99902 13.1502 1.99902H10.8602C9.83017 1.99902 8.63017 2.74902 8.17017 3.65902L7.45017 5.10902C7.17017 5.64902 6.61017 5.99902 6.00017 5.99902C3.83017 5.99902 2.11017 7.82902 2.25017 9.98902L2.77017 18.249C2.89017 20.309 4.00017 21.999 6.76017 21.999Z" stroke="#231F20" stroke-width="1.5" stroke-linecap="round" stroke-linejoin="round"/>
<path d="M10.5 7.99902H13.5" stroke="#231F20" stroke-width="1.5" stroke-linecap="round" stroke-linejoin="round"/>
<path d="M12 17.999C13.79 17.999 15.25 16.539 15.25 14.749C15.25 12.959 13.79 11.499 12 11.499C10.21 11.499 8.75 12.959 8.75 14.749C8.75 16.539 10.21 17.999 12 17.999Z" stroke="#231F20" stroke-width="1.5" stroke-linecap="round" stroke-linejoin="round"/>
</svg>
